#N canvas 1092 412 450 300 12;
#X msg 43 71 10;
#X msg 86 70 5;
#X obj 68 115 +;
#X floatatom 68 158 5 0 0 0 - - - 0;
#X obj 70 31 bng 15 250 50 0 empty empty empty 17 7 0 10 #fcfcfc #000000
#000000;
#X msg 179 74 10;
#X msg 222 73 5;
#X obj 204 118 +;
#X obj 204 34 bng 15 250 50 0 empty empty empty 17 7 0 10 #fcfcfc #000000
#000000;
#X floatatom 204 161 5 0 0 0 - - - 0;
#X connect 0 0 2 0;
#X connect 1 0 2 1;
#X connect 2 0 3 0;
#X connect 4 0 0 0;
#X connect 4 0 1 0;
#X connect 5 0 7 0;
#X connect 6 0 7 1;
#X connect 7 0 9 0;
#X connect 8 0 6 0;
#X connect 8 0 5 0;
