#N canvas 1369 451 450 300 12;
#X msg 46 38 connect 224.0.0.0 4000;
#X msg 45 74 disconnect 224.0.0.0 4000;
#X obj 45 209 mrpeach/net/udpsend;
#X floatatom 45 249 5 0 0 0 - - - 0;
#X obj 164 110 hsl 128 15 0 100 0 0 empty empty empty -2 -8 0 10 #00ff04
#000000 #000000 0 1;
#X obj 161 166 osc/packOSC;
#X msg 161 136 send /volume \$1;
#X connect 0 0 2 0;
#X connect 1 0 2 0;
#X connect 2 0 3 0;
#X connect 4 0 6 0;
#X connect 5 0 2 0;
#X connect 6 0 5 0;
