#N canvas 266 179 968 663 12;
#X obj 425 258 osc/packOSC;
#X obj 358 305 mrpeach/net/udpsend;
#X floatatom 425 197 5 0 255 0 - - - 0;
#X floatatom 358 343 5 0 1 0 - - - 0;
#X obj 428 144 hsl 128 15 0 255 0 0 empty empty empty -2 -8 0 10 #00fc04
#000000 #000000 0 1;
#X obj 425 170 int;
#X msg 358 74 connect 255.255.255.255 12000;
#X msg 358 112 disconnect 255.255.255.255 12000;
#X obj 799 285 osc/packOSC;
#X floatatom 799 226 5 0 255 0 - - - 0;
#X obj 802 171 hsl 128 15 0 255 0 0 empty empty empty -2 -8 0 10 #0400fc
#000000 #000000 0 1;
#X obj 799 199 int;
#X obj 159 285 osc/packOSC;
#X floatatom 159 224 5 0 255 0 - - - 0;
#X obj 162 171 hsl 128 15 0 255 0 0 empty empty empty -2 -8 0 10 #fc0400
#000000 #000000 0 1;
#X obj 159 198 int;
#X msg 159 256 send /vermelho \$1;
#X msg 425 229 send /verde \$1;
#X msg 799 256 send /azul \$1;
#X text 572 75 <-- conecta a este endereço;
#X text 602 114 <-- encerra conexão;
#X text 460 170 <-- Transforma valor do slider em int;
#X text 466 197 <-- exibe este valor;
#X text 554 229 <-- prepara mensagem OSC;
#X text 510 260 <-- Empacora mensagem;
#X text 499 308 <-- Envia pela rede;
#X text 194 197;
#X text 200 224;
#X text 834 197;
#X text 840 224;
#X text 925 238;
#X text 881 285;
#X text 400 342 <-- status da conexão;
#X connect 0 0 1 0;
#X connect 1 0 3 0;
#X connect 2 0 17 0;
#X connect 4 0 5 0;
#X connect 5 0 2 0;
#X connect 6 0 1 0;
#X connect 7 0 1 0;
#X connect 8 0 1 0;
#X connect 9 0 18 0;
#X connect 10 0 11 0;
#X connect 11 0 9 0;
#X connect 12 0 1 0;
#X connect 13 0 16 0;
#X connect 14 0 15 0;
#X connect 15 0 13 0;
#X connect 16 0 12 0;
#X connect 17 0 0 0;
#X connect 18 0 8 0;
